<svg xmlns="http://www.w3.org/2000/svg" width="272" height="185" viewBox="0 0 272 185">
<g>
<path d="M 105.68 109.12 C95.48,110.22 60.53,111.21 59.75,110.42 C59.34,110.01 59.00,101.69 59.00,91.94 L 59.00 74.20 L 72.25 73.61 C79.54,73.28 91.35,72.89 98.50,72.75 L 111.50 72.50 L 111.50 108.50 ZM 201.30 82.32 C190.96,82.68 176.35,83.27 168.83,83.63 L 155.17 84.30 L 154.83 76.90 C154.28,64.67 154.40,64.35 159.68,63.63 C166.52,62.69 217.74,60.69 219.33,61.29 C221.06,61.96 222.50,77.20 221.08,79.86 C220.21,81.48 218.07,81.75 201.30,82.32 ZM 190.52 108.99 C174.58,109.63 160.33,110.38 158.86,110.68 C156.85,111.08 155.91,110.71 155.09,109.17 C153.79,106.74 153.65,92.10 154.91,90.11 C155.60,89.02 159.60,88.66 173.15,88.47 C182.69,88.33 188.14,88.42 185.25,88.66 L 180.00 89.10 L 180.00 98.14 L 185.75 97.45 C188.91,97.06 191.84,96.55 192.25,96.32 C192.66,96.08 193.00,94.11 193.00,91.94 C193.00,89.77 193.45,88.00 194.00,88.00 C194.55,88.00 194.95,88.34 194.88,88.75 C194.82,89.16 194.82,91.19 194.88,93.25 L 195.00 97.00 L 207.00 97.00 L 207.00 88.00 L 201.75 87.86 C198.35,87.77 200.20,87.41 207.00,86.84 C207.64,86.79 208.24,86.73 208.83,86.68 C216.01,86.07 219.28,85.79 220.77,87.29 C222.02,88.54 222.01,91.05 222.00,95.65 C222.00,96.10 222.00,96.56 222.00,97.05 C222.00,104.19 221.64,107.17 220.75,107.45 C220.06,107.67 206.46,108.36 190.52,108.99 ZM 87.75 150.75 C86.35,151.87 66.67,153.03 65.13,152.08 C64.06,151.42 63.18,138.48 64.15,137.51 C64.48,137.18 70.21,136.64 76.88,136.30 L 89.00 135.69 L 89.00 142.72 C89.00,147.15 88.54,150.13 87.75,150.75 ZM 113.00 151.08 C113.00,153.63 112.64,154.00 110.12,154.00 C106.54,154.00 104.59,151.78 105.38,148.62 C105.99,146.19 103.90,144.33 101.93,145.54 C99.86,146.82 97.00,143.91 97.00,140.53 C97.00,137.32 97.22,137.10 100.72,136.81 C104.13,136.53 104.54,136.16 105.56,132.50 C106.37,129.56 107.26,128.41 108.89,128.17 C111.96,127.72 114.00,129.70 114.00,133.12 C114.00,135.80 114.27,136.00 117.93,136.00 C122.28,136.00 123.71,138.03 122.57,142.57 C122.06,144.62 121.36,145.00 118.09,145.00 C113.89,145.00 113.00,146.06 113.00,151.08 ZM 222.48 145.75 C221.97,147.96 221.70,148.00 206.95,148.00 C206.65,148.00 206.37,148.00 206.08,148.00 C196.18,148.00 192.62,148.00 191.48,146.34 C190.85,145.42 190.97,143.97 191.15,141.71 C191.16,141.59 191.17,141.48 191.18,141.36 L 191.50 137.50 L 222.28 137.50 L 222.64 140.50 C222.84,142.15 222.77,144.51 222.48,145.75 ZM 183.11 137.94 L 182.50 148.50 L 168.87 148.78 L 155.24 149.05 L 154.83 146.26 C154.60,144.73 154.68,142.35 155.00,140.99 C155.59,138.50 155.61,138.50 169.35,138.22 ZM 61.02 42.49 C56.57,44.79 54.13,44.33 50.27,40.47 C47.19,37.39 46.82,36.50 47.33,33.38 C48.00,29.20 49.32,27.40 53.16,25.42 C55.60,24.16 56.43,24.15 59.36,25.38 C67.52,28.79 68.48,38.63 61.02,42.49 ZM 167.50 89.50 L 166.89 98.00 L 179.00 98.00 L 179.00 88.90 ZM 167.50 99.50 L 166.89 108.00 L 179.00 108.00 L 179.00 98.90 ZM 195.50 98.50 L 194.89 107.00 L 206.68 107.00 L 207.02 97.90 L 201.26 98.20 ZM 208.00 88.00 L 208.00 97.25 L 211.12 96.62 C212.84,96.28 215.54,96.00 217.12,96.00 C219.88,96.00 220.00,95.80 220.00,91.38 C220.00,87.08 219.85,86.81 217.75,87.37 C216.51,87.70 213.81,87.98 211.75,87.99 ZM 181.00 104.58 C181.00,106.89 181.29,107.00 187.56,107.00 L 194.12 107.00 L 193.50 99.50 L 186.62 99.20 C180.61,98.94 179.83,99.11 180.37,100.53 C180.72,101.43 181.00,103.25 181.00,104.58 ZM 55.62 138.46 C52.50,143.22 46.00,140.86 46.00,134.96 C46.00,129.52 53.85,128.38 56.18,133.49 C57.06,135.42 56.94,136.44 55.62,138.46 ZM 209.00 98.25 L 209.00 107.23 L 214.25 106.64 C217.14,106.31 219.61,106.04 219.75,106.02 C220.40,105.96 219.91,98.98 219.25,98.88 C218.84,98.81 216.36,98.64 213.75,98.50 ZM 155.36 106.50 C155.77,107.56 157.42,108.00 160.97,108.00 L 166.00 108.00 L 166.00 100.00 L 161.02 100.00 C156.54,100.00 155.97,100.25 155.41,102.50 C155.07,103.87 155.04,105.67 155.36,106.50 ZM 155.64 96.49 C156.04,97.55 157.67,98.00 161.11,98.00 L 166.00 98.00 L 166.00 90.00 L 161.48 90.00 C157.57,90.00 156.82,90.34 156.00,92.49 C155.48,93.86 155.32,95.66 155.64,96.49 ZM 50.33 33.81 C52.06,37.70 57.00,35.93 57.00,31.42 C57.00,29.90 56.26,29.09 54.59,28.77 C51.30,28.14 49.01,30.85 50.33,33.81 ZM 90.79 129.12 C90.39,130.32 83.62,131.28 82.61,130.28 C81.07,128.74 82.36,128.00 86.58,128.00 C89.52,128.00 91.03,128.40 90.79,129.12 ZM 91.82 22.17 C91.43,24.81 89.23,25.75 88.41,23.63 C87.66,21.68 88.68,20.00 90.63,20.00 C91.61,20.00 92.03,20.76 91.82,22.17 ZM 217.50 112.00 C217.85,112.57 216.99,113.00 215.50,113.00 C214.01,113.00 213.15,112.57 213.50,112.00 C213.84,111.45 214.74,111.00 215.50,111.00 C216.26,111.00 217.16,111.45 217.50,112.00 ZM 204.20 111.80 C205.13,112.73 204.87,113.00 203.00,113.00 C201.13,113.00 200.87,112.73 201.80,111.80 C202.73,110.87 203.27,110.87 204.20,111.80 ZM 81.00 69.00 C81.00,69.55 80.55,70.00 80.00,70.00 C79.45,70.00 79.00,69.55 79.00,69.00 C79.00,68.45 79.45,68.00 80.00,68.00 C80.55,68.00 81.00,68.45 81.00,69.00 Z" fill="rgb(35,49,54)"/>
<path d="M 103.35 170.36 C83.63,170.73 62.23,171.31 55.79,171.66 L 44.08 172.28 L 40.54 168.74 L 37.00 165.20 L 37.21 151.85 L 37.43 138.50 L 37.75 149.79 C37.94,156.60 38.44,160.84 39.02,160.49 C39.59,160.13 39.72,161.17 39.33,163.11 L 38.68 166.33 L 55.59 165.60 C64.89,165.19 84.58,164.51 99.35,164.07 C120.55,163.45 126.39,162.99 127.09,161.89 C127.57,161.13 127.98,160.85 127.98,161.28 C127.99,161.70 129.33,161.36 130.95,160.53 C132.57,159.69 134.82,159.00 135.95,159.00 C137.63,159.00 138.00,158.36 138.00,155.50 C138.00,153.57 138.01,151.66 138.03,151.25 C138.11,149.37 132.65,149.98 130.40,152.10 C128.41,153.96 128.00,154.06 128.00,152.70 C128.00,150.89 132.79,148.00 135.79,148.00 C137.54,148.00 137.74,146.81 138.34,132.25 C138.70,123.59 138.99,100.19 139.00,80.25 L 139.00 44.00 L 136.69 44.00 C135.42,44.00 133.51,44.64 132.44,45.42 C130.69,46.69 130.45,48.52 129.95,63.67 L 129.40 80.50 L 129.22 61.00 C129.11,50.28 129.40,42.09 129.86,42.80 C130.54,43.88 131.44,43.88 134.94,42.80 L 139.19 41.50 L 138.74 36.75 C138.50,34.14 138.68,32.00 139.15,32.00 C140.57,32.00 140.19,15.24 138.75,14.66 C138.06,14.38 137.98,14.12 138.56,14.08 C139.15,14.04 140.94,15.37 142.55,17.05 C145.15,19.76 145.51,20.93 145.85,27.69 L 146.23 35.29 L 156.54 34.66 C162.20,34.31 169.91,33.76 173.67,33.43 L 180.50 32.84 L 188.94 40.67 L 197.37 48.50 L 215.54 48.16 C231.37,47.86 233.79,48.02 234.32,49.39 C234.98,51.12 235.41,160.92 234.76,161.58 C234.54,161.80 214.16,162.70 189.47,163.57 C145.44,165.14 144.54,165.21 141.90,167.43 C139.25,169.66 138.67,169.71 103.35,170.36 ZM 144.01 98.50 L 143.97 161.00 L 150.24 160.99 C167.11,160.98 230.93,158.16 232.20,157.37 C232.64,157.10 232.94,139.92 232.86,119.19 C232.78,98.46 232.39,83.30 231.98,85.50 C231.53,88.00 231.24,83.70 231.21,74.08 C231.19,65.60 231.53,57.73 231.97,56.58 C233.54,52.46 231.22,51.89 213.62,52.07 C204.62,52.17 196.57,51.85 195.73,51.37 C194.88,50.89 191.73,48.20 188.72,45.39 C184.19,41.16 182.07,39.14 179.55,38.22 C177.23,37.37 174.57,37.46 169.37,37.64 C169.17,37.65 168.96,37.66 168.75,37.66 C163.11,37.86 156.13,38.27 153.23,38.58 L 147.97 39.15 L 148.23 98.57 C148.41,137.86 148.16,157.89 147.50,157.67 C146.85,157.45 146.41,135.99 146.24,96.67 C146.08,58.61 145.63,36.00 145.02,36.00 C144.41,36.00 144.04,59.12 144.01,98.50 ZM 41.93 56.75 C41.89,56.06 41.54,56.31 41.15,57.30 C40.56,58.79 40.22,58.51 39.22,55.73 C38.55,53.88 38.00,52.16 38.00,51.93 C38.01,51.69 40.82,51.43 44.25,51.34 C56.93,51.03 84.55,49.14 86.00,48.49 C86.82,48.12 90.34,44.49 93.82,40.41 L 100.13 33.00 L 114.32 32.93 C122.12,32.89 130.37,32.78 132.66,32.68 C134.94,32.58 136.60,32.84 136.35,33.25 C136.09,33.66 135.08,34.00 134.11,34.00 C132.49,34.00 130.94,36.09 129.65,40.00 C129.38,40.83 129.09,40.15 129.00,38.50 C128.91,36.85 128.62,36.06 128.34,36.75 C128.06,37.44 127.17,38.00 126.36,38.00 C125.55,38.00 125.16,37.55 125.50,37.00 C125.88,36.39 124.45,36.04 121.81,36.10 C118.17,36.18 117.89,36.32 120.00,37.00 C121.65,37.53 119.23,37.83 112.87,37.90 C105.66,37.98 102.94,38.37 102.01,39.49 C101.33,40.31 100.30,40.69 99.73,40.33 C99.16,39.98 98.98,40.16 99.33,40.73 C100.22,42.16 96.27,46.95 93.27,48.09 C91.62,48.71 90.99,49.54 91.39,50.57 C91.74,51.48 91.56,51.85 90.94,51.47 C90.38,51.11 89.37,51.26 88.71,51.80 C88.04,52.33 82.55,53.05 76.50,53.40 C70.45,53.74 60.33,54.58 54.00,55.26 C44.67,56.27 43.25,56.61 46.50,57.11 L 50.50 57.72 L 46.25 57.86 C43.47,57.95 41.98,57.57 41.93,56.75 ZM 190.52 108.99 C206.46,108.36 220.06,107.67 220.75,107.45 C221.20,107.31 221.52,106.47 221.72,104.74 L 221.50 113.50 L 208.75 113.73 C196.46,113.95 196.00,113.88 196.00,111.90 C196.00,109.87 195.62,109.84 175.93,110.11 C171.54,110.17 168.06,110.19 165.30,110.18 C171.23,109.83 180.54,109.39 190.52,108.99 ZM 100.00 122.43 C91.47,122.73 78.20,123.27 70.49,123.63 C58.50,124.19 56.30,124.07 55.19,122.73 C54.05,121.36 54.38,121.24 58.10,121.74 C60.41,122.05 75.04,121.72 90.60,121.00 L 118.90 119.69 L 119.28 115.59 L 119.65 111.50 L 119.83 116.23 C119.83,116.49 119.85,116.74 119.86,116.98 C119.92,118.39 119.97,119.38 119.54,120.09 C118.47,121.89 114.39,121.91 100.00,122.43 ZM 120.85 83.75 C120.93,94.89 120.83,104.00 120.63,104.00 C119.03,104.00 118.60,82.11 119.96,70.00 C120.49,65.35 120.74,69.26 120.85,83.75 ZM 41.17 84.50 C40.68,81.40 40.41,82.76 39.96,90.50 C39.54,97.84 39.37,95.04 39.33,80.00 C39.27,58.98 40.60,58.34 41.42,79.00 C41.62,84.22 41.51,86.70 41.17,84.50 ZM 179.79 128.75 C179.06,129.63 175.18,129.98 166.63,129.94 C151.64,129.86 153.92,128.33 169.75,127.84 C178.53,127.57 180.62,127.76 179.79,128.75 ZM 77.38 152.14 C72.01,152.49 66.31,152.61 65.00,152.18 C64.18,151.92 63.17,151.21 62.77,150.60 C61.57,148.80 61.90,138.50 63.20,137.20 C64.00,136.40 68.47,136.00 76.70,136.00 L 82.93 136.00 L 76.88 136.30 C70.21,136.64 64.48,137.18 64.15,137.51 C63.18,138.48 64.06,151.42 65.13,152.08 C65.94,152.58 71.81,152.50 77.38,152.14 ZM 220.39 127.42 C220.06,128.29 219.33,129.00 218.77,129.00 C218.19,129.00 218.30,128.34 219.02,127.48 C219.72,126.64 220.00,125.66 219.64,125.31 C219.29,124.96 219.00,125.19 219.00,125.83 C219.00,126.47 218.30,127.00 217.44,127.00 C216.58,127.00 216.13,126.59 216.44,126.09 C217.54,124.32 215.78,121.83 213.80,122.34 C212.62,122.65 212.03,122.40 212.28,121.67 C212.49,121.03 214.20,120.50 216.08,120.50 C218.72,120.50 219.47,120.90 219.36,122.24 C219.29,123.20 219.62,123.73 220.11,123.43 C221.13,122.80 221.29,125.08 220.39,127.42 ZM 63.66 117.43 C62.97,119.24 60.44,119.52 59.44,117.90 C58.38,116.19 61.72,113.32 63.13,114.73 C63.75,115.35 63.99,116.57 63.66,117.43 ZM 217.50 112.00 C217.16,111.45 216.26,111.00 215.50,111.00 C214.74,111.00 213.84,111.45 213.50,112.00 C213.15,112.57 214.01,113.00 215.50,113.00 C216.99,113.00 217.85,112.57 217.50,112.00 ZM 204.20 111.80 C203.27,110.87 202.73,110.87 201.80,111.80 C200.87,112.73 201.13,113.00 203.00,113.00 C204.87,113.00 205.13,112.73 204.20,111.80 ZM 155.04 109.07 C155.00,109.03 154.97,108.98 154.94,108.94 C154.41,108.10 154.12,104.51 154.06,100.67 C154.15,104.36 154.48,107.87 155.04,109.07 ZM 220.67 87.19 C219.13,85.80 215.84,86.08 208.83,86.68 C208.24,86.73 207.64,86.79 207.00,86.84 C207.95,86.76 208.84,86.68 209.68,86.61 C216.00,86.05 219.15,85.78 220.67,87.19 ZM 221.72 89.32 C221.92,90.25 221.99,91.43 222.00,92.92 C221.97,91.43 221.91,90.25 221.72,89.32 Z" fill="rgb(136,13,31)"/>
<path d="M 41.93 56.75 C41.98,57.57 43.47,57.95 46.25,57.86 L 50.50 57.72 L 46.50 57.11 C43.25,56.61 44.67,56.27 54.00,55.26 C60.33,54.58 70.45,53.74 76.50,53.40 C82.55,53.05 88.04,52.33 88.71,51.80 C89.37,51.26 90.38,51.11 90.94,51.47 C91.56,51.85 91.74,51.48 91.39,50.57 C90.99,49.54 91.62,48.71 93.27,48.09 C96.27,46.95 100.22,42.16 99.33,40.73 C98.98,40.16 99.16,39.98 99.73,40.33 C100.30,40.69 101.33,40.31 102.01,39.49 C102.94,38.37 105.66,37.98 112.87,37.90 C119.23,37.83 121.65,37.53 120.00,37.00 C117.89,36.32 118.17,36.18 121.81,36.10 C124.45,36.04 125.88,36.39 125.50,37.00 C125.16,37.55 125.55,38.00 126.36,38.00 C127.17,38.00 128.06,37.44 128.34,36.75 C128.62,36.06 128.91,36.85 129.00,38.50 C129.09,40.15 129.38,40.83 129.65,40.00 C130.94,36.09 132.49,34.00 134.11,34.00 C135.08,34.00 136.09,33.66 136.35,33.25 C136.60,32.84 134.94,32.58 132.66,32.68 C130.37,32.78 122.12,32.89 114.32,32.93 L 100.13 33.00 L 93.82 40.41 C90.34,44.49 86.82,48.12 86.00,48.49 C84.55,49.14 56.93,51.03 44.25,51.34 C41.05,51.42 38.39,51.66 38.04,51.88 C37.96,45.10 39.26,20.59 39.88,19.24 C39.95,19.10 43.14,19.28 46.98,19.63 C51.71,20.07 54.41,19.91 55.36,19.12 C56.14,18.47 59.18,17.99 62.13,18.05 C67.44,18.15 79.88,17.51 91.50,16.53 C94.80,16.25 102.11,15.99 107.75,15.95 C113.51,15.91 118.00,15.46 118.00,14.92 C118.00,14.39 120.99,14.08 124.75,14.21 C128.46,14.34 133.30,14.13 135.50,13.73 C139.25,13.07 139.69,13.25 142.49,16.67 C143.15,17.49 143.68,18.18 144.10,18.88 C143.69,18.29 143.19,17.72 142.55,17.05 C140.94,15.37 139.15,14.04 138.56,14.08 C137.98,14.12 138.06,14.38 138.75,14.66 C140.19,15.24 140.57,32.00 139.15,32.00 C138.68,32.00 138.50,34.14 138.74,36.75 L 139.19 41.50 L 134.94 42.80 C131.44,43.88 130.54,43.88 129.86,42.80 C129.40,42.09 129.11,50.28 129.22,61.00 L 129.40 80.50 L 129.95 63.67 C130.45,48.52 130.69,46.69 132.44,45.42 C133.51,44.64 135.42,44.00 136.69,44.00 L 139.00 44.00 L 139.00 80.25 C138.99,100.19 138.70,123.59 138.34,132.25 C137.74,146.81 137.54,148.00 135.79,148.00 C132.79,148.00 128.00,150.89 128.00,152.70 C128.00,154.06 128.41,153.96 130.40,152.10 C132.65,149.98 138.11,149.37 138.03,151.25 C138.01,151.66 138.00,153.57 138.00,155.50 C138.00,158.36 137.63,159.00 135.95,159.00 C134.82,159.00 132.57,159.69 130.95,160.53 C129.33,161.36 127.99,161.70 127.98,161.28 C127.98,160.85 127.57,161.13 127.09,161.89 C126.39,162.99 120.55,163.45 99.35,164.07 C84.58,164.51 64.89,165.19 55.59,165.60 L 38.68 166.33 L 39.33 163.11 C39.72,161.17 39.59,160.13 39.02,160.49 C38.44,160.84 37.94,156.60 37.75,149.79 L 37.56 143.02 C38.57,110.32 38.98,54.68 38.17,53.59 C38.10,53.50 38.06,52.99 38.05,52.16 C38.19,52.74 38.66,54.18 39.22,55.73 C40.22,58.51 40.56,58.79 41.15,57.30 C41.54,56.31 41.89,56.06 41.93,56.75 ZM 144.01 98.50 C144.04,59.12 144.41,36.00 145.02,36.00 C145.63,36.00 146.08,58.61 146.24,96.67 C146.41,135.99 146.85,157.45 147.50,157.67 C148.16,157.89 148.41,137.86 148.23,98.57 L 147.97 39.15 L 153.23 38.58 C156.13,38.27 163.11,37.86 168.75,37.66 C168.96,37.66 169.17,37.65 169.37,37.64 C174.57,37.46 177.23,37.37 179.55,38.22 C182.07,39.14 184.19,41.16 188.72,45.39 C191.73,48.20 194.88,50.89 195.73,51.37 C196.57,51.85 204.62,52.17 213.62,52.07 C231.22,51.89 233.54,52.46 231.97,56.58 C231.53,57.73 231.19,65.60 231.21,74.08 C231.24,83.70 231.53,88.00 231.98,85.50 C232.39,83.30 232.78,98.46 232.86,119.19 C232.94,139.92 232.64,157.10 232.20,157.37 C230.93,158.16 167.11,160.98 150.24,160.99 L 143.97 161.00 ZM 100.00 122.43 C114.39,121.91 118.47,121.89 119.54,120.09 C119.97,119.38 119.92,118.39 119.86,116.98 C119.85,116.74 119.83,116.49 119.83,116.23 L 119.65 111.50 L 119.28 115.59 L 118.90 119.69 L 95.57 120.77 L 118.78 119.63 L 119.27 114.58 C119.45,112.65 119.50,105.81 119.42,97.44 C119.66,101.37 120.08,104.00 120.63,104.00 C120.83,104.00 120.93,94.89 120.85,83.75 C120.74,69.26 120.49,65.35 119.96,70.00 C119.52,73.91 119.27,78.85 119.18,83.74 L 118.71 62.00 L 115.60 62.02 C113.90,62.03 99.45,62.70 83.50,63.50 C67.55,64.31 53.49,64.97 52.25,64.98 L 50.00 65.00 L 50.00 116.11 L 53.22 119.06 C54.94,120.62 56.01,121.50 59.83,121.84 C59.02,121.82 58.44,121.79 58.10,121.74 C54.38,121.24 54.05,121.36 55.19,122.73 C56.30,124.07 58.50,124.19 70.49,123.63 C78.20,123.27 91.47,122.73 100.00,122.43 ZM 155.04 109.07 C155.06,109.11 155.08,109.14 155.09,109.17 C155.91,110.71 156.85,111.08 158.86,110.68 C159.41,110.57 161.75,110.39 165.30,110.18 C168.06,110.19 171.54,110.17 175.93,110.11 C195.62,109.84 196.00,109.87 196.00,111.90 C196.00,113.88 196.46,113.95 208.75,113.73 L 221.50 113.50 L 221.72 104.74 C221.91,103.07 222.00,100.56 222.00,97.05 C222.00,96.56 222.00,96.10 222.00,95.65 C222.00,94.64 222.01,93.73 222.00,92.92 C221.99,91.43 221.92,90.25 221.72,89.32 C221.54,88.43 221.25,87.77 220.77,87.29 C220.74,87.25 220.70,87.22 220.67,87.19 C219.15,85.78 216.00,86.05 209.68,86.61 C208.84,86.68 207.95,86.76 207.00,86.84 C200.20,87.41 198.35,87.77 201.75,87.86 L 207.00 88.00 L 201.17 88.00 C197.96,88.00 195.13,88.20 194.89,88.45 C194.88,88.46 194.87,88.47 194.86,88.48 C194.76,88.20 194.43,88.00 194.00,88.00 C193.45,88.00 193.00,89.77 193.00,91.94 C193.00,94.11 192.66,96.08 192.25,96.32 C192.66,96.08 193.00,94.05 193.00,91.82 C193.00,88.10 192.81,87.82 190.75,88.37 C189.51,88.70 186.59,88.98 184.25,88.99 L 181.30 89.00 L 185.25 88.66 C188.14,88.42 182.69,88.33 173.15,88.47 C159.60,88.66 155.60,89.02 154.91,90.11 C154.22,91.19 153.95,96.08 154.06,100.67 C154.12,104.51 154.41,108.10 154.94,108.94 C154.97,108.98 155.00,109.03 155.04,109.07 ZM 201.30 82.32 C218.07,81.75 220.21,81.48 221.08,79.86 C222.50,77.20 221.06,61.96 219.33,61.29 C217.74,60.69 166.52,62.69 159.68,63.63 C154.40,64.35 154.28,64.67 154.83,76.90 L 155.17 84.30 L 168.83 83.63 C176.35,83.27 190.96,82.68 201.30,82.32 ZM 87.75 150.75 C88.54,150.13 89.00,147.15 89.00,142.72 L 89.00 135.69 L 82.93 136.00 L 76.70 136.00 C68.47,136.00 64.00,136.40 63.20,137.20 C61.90,138.50 61.57,148.80 62.77,150.60 C63.17,151.21 64.18,151.92 65.00,152.18 C66.31,152.61 72.01,152.49 77.38,152.14 L 77.38 152.14 C82.36,151.82 87.09,151.28 87.75,150.75 ZM 56.50 46.24 C60.03,46.62 62.00,46.13 62.00,44.89 C62.00,44.40 62.61,44.00 63.35,44.00 C65.18,44.00 68.34,40.36 67.58,39.13 C67.24,38.59 67.42,37.86 67.98,37.51 C69.39,36.64 69.26,31.00 67.83,31.00 C67.19,31.00 66.92,30.75 67.23,30.44 C68.39,29.27 63.14,24.98 59.89,24.45 L 56.50 23.89 L 59.62 25.34 C61.19,26.07 62.51,27.08 63.53,28.26 C62.46,27.09 61.07,26.09 59.36,25.38 C56.43,24.15 55.60,24.16 53.16,25.42 C49.32,27.40 48.00,29.20 47.33,33.38 C47.16,34.43 47.08,35.22 47.18,35.93 C47.15,35.84 47.12,35.75 47.10,35.67 C46.33,33.02 46.17,32.89 46.09,34.85 C45.96,38.23 48.73,43.53 51.30,44.82 C52.51,45.43 54.85,46.07 56.50,46.24 ZM 113.00 151.08 C113.00,146.06 113.89,145.00 118.09,145.00 C121.36,145.00 122.06,144.62 122.57,142.57 C123.71,138.03 122.28,136.00 117.93,136.00 C114.27,136.00 114.00,135.80 114.00,133.12 C114.00,129.70 111.96,127.72 108.89,128.17 C107.26,128.41 106.37,129.56 105.56,132.50 C104.54,136.16 104.13,136.53 100.72,136.81 C97.22,137.10 97.00,137.32 97.00,140.53 C97.00,143.91 99.86,146.82 101.93,145.54 C103.90,144.33 105.99,146.19 105.38,148.62 C104.59,151.78 106.54,154.00 110.12,154.00 C112.64,154.00 113.00,153.63 113.00,151.08 ZM 222.48 145.75 C222.77,144.51 222.84,142.15 222.64,140.50 L 222.28 137.50 L 191.50 137.50 L 191.18 141.36 C191.17,141.48 191.16,141.59 191.15,141.71 C190.97,143.97 190.85,145.42 191.48,146.34 C192.62,148.00 196.18,148.00 206.08,148.00 C206.37,148.00 206.65,148.00 206.95,148.00 C221.70,148.00 221.97,147.96 222.48,145.75 ZM 183.11 137.94 L 169.35 138.22 C155.61,138.50 155.59,138.50 155.00,140.99 C154.68,142.35 154.60,144.73 154.83,146.26 L 155.24 149.05 L 168.87 148.78 L 182.50 148.50 ZM 154.00 119.00 L 154.00 128.06 L 179.50 127.50 L 179.81 122.60 L 180.12 117.70 L 173.31 118.34 C169.56,118.70 163.69,118.99 160.25,118.99 ZM 55.62 138.46 C56.94,136.44 57.06,135.42 56.18,133.49 C53.85,128.38 46.00,129.52 46.00,134.96 C46.00,140.86 52.50,143.22 55.62,138.46 ZM 220.39 127.42 C221.29,125.08 221.13,122.80 220.11,123.43 C219.62,123.73 219.29,123.20 219.36,122.24 C219.47,120.90 218.72,120.50 216.08,120.50 C214.20,120.50 212.49,121.03 212.28,121.67 C212.07,122.30 212.48,122.58 213.38,122.43 C212.44,123.23 212.17,124.90 213.31,125.36 C215.04,126.06 215.60,126.07 216.26,125.40 C216.73,124.94 216.65,124.10 216.28,123.37 C216.82,124.15 216.99,125.21 216.44,126.09 C216.13,126.59 216.58,127.00 217.44,127.00 C218.30,127.00 219.00,126.47 219.00,125.83 C219.00,125.19 219.29,124.96 219.64,125.31 C220.00,125.66 219.72,126.64 219.02,127.48 C218.30,128.34 218.19,129.00 218.77,129.00 C219.33,129.00 220.06,128.29 220.39,127.42 ZM 41.17 84.50 C41.51,86.70 41.62,84.22 41.42,79.00 C40.60,58.34 39.27,58.98 39.33,80.00 C39.37,95.04 39.54,97.84 39.96,90.50 C40.41,82.76 40.68,81.40 41.17,84.50 ZM 179.79 128.75 C180.62,127.76 178.53,127.57 169.75,127.84 C153.92,128.33 151.64,129.86 166.63,129.94 C175.18,129.98 179.06,129.63 179.79,128.75 ZM 90.79 129.12 C91.03,128.40 89.52,128.00 86.58,128.00 C82.36,128.00 81.07,128.74 82.61,130.28 C83.62,131.28 90.39,130.32 90.79,129.12 ZM 91.82 22.17 C92.03,20.76 91.61,20.00 90.63,20.00 C88.68,20.00 87.66,21.68 88.41,23.63 C89.23,25.75 91.43,24.81 91.82,22.17 ZM 37.18 154.27 L 37.00 165.20 L 36.81 165.01 ZM 49.19 39.35 C49.50,39.70 49.87,40.07 50.27,40.47 C53.35,43.55 55.52,44.46 58.52,43.55 C57.66,43.83 56.83,44.00 56.13,44.00 C54.17,44.00 51.22,41.86 49.19,39.35 ZM 63.06 41.11 C64.64,39.75 65.59,38.03 65.94,36.22 C65.78,37.18 65.46,38.14 64.97,39.06 C64.61,39.73 63.92,40.45 63.06,41.11 ZM 194.90 93.71 L 195.21 97.00 L 195.00 97.00 Z" fill="rgb(210,17,49)"/>
<path d="M 0.00 92.50 L 0.00 0.00 L 136.00 0.00 L 272.00 0.00 L 272.00 92.50 L 272.00 185.00 L 136.00 185.00 L 0.00 185.00 L 0.00 92.50 ZM 103.35 170.36 C138.67,169.71 139.25,169.66 141.90,167.43 C144.54,165.21 145.44,165.14 189.47,163.57 C214.16,162.70 234.54,161.80 234.76,161.58 C235.41,160.92 234.98,51.12 234.32,49.39 C233.79,48.02 231.37,47.86 215.54,48.16 L 197.37 48.50 L 188.94 40.67 L 180.50 32.84 L 173.67 33.43 C169.91,33.76 162.20,34.31 156.54,34.66 L 146.23 35.29 L 145.86 27.81 C145.53,21.27 145.10,19.86 142.49,16.67 C139.69,13.25 139.25,13.07 135.50,13.73 C133.30,14.13 128.46,14.34 124.75,14.21 C120.99,14.08 118.00,14.39 118.00,14.92 C118.00,15.46 113.51,15.91 107.75,15.95 C102.11,15.99 94.80,16.25 91.50,16.53 C79.88,17.51 67.44,18.15 62.13,18.05 C59.18,17.99 56.14,18.47 55.36,19.12 C54.41,19.91 51.71,20.07 46.98,19.63 C43.14,19.28 39.95,19.10 39.88,19.24 C39.16,20.79 37.57,52.78 38.17,53.59 C39.01,54.72 38.53,114.77 37.43,146.75 L 36.81 165.01 L 40.44 168.64 L 44.08 172.28 L 55.79 171.66 C62.23,171.31 83.63,170.73 103.35,170.36 ZM 154.00 123.53 L 154.00 119.00 L 160.25 118.99 C163.69,118.99 169.56,118.70 173.31,118.34 L 180.12 117.70 L 179.81 122.60 L 179.50 127.50 L 166.75 127.78 L 154.00 128.06 L 154.00 123.53 ZM 213.31 125.36 C211.80,124.74 212.78,122.00 214.50,122.00 C215.93,122.00 217.20,124.46 216.26,125.40 C215.60,126.07 215.04,126.06 213.31,125.36 ZM 53.22 119.06 L 50.00 116.11 L 50.00 90.56 L 50.00 65.00 L 52.25 64.98 C53.49,64.97 67.55,64.31 83.50,63.50 C99.45,62.70 113.90,62.03 115.60,62.02 L 118.71 62.00 L 119.23 85.77 C119.52,98.84 119.53,111.80 119.27,114.58 L 118.78 119.63 L 94.14 120.84 C57.67,122.62 57.09,122.59 53.22,119.06 ZM 63.66 117.43 C63.99,116.57 63.75,115.35 63.13,114.73 C61.72,113.32 58.38,116.19 59.44,117.90 C60.44,119.52 62.97,119.24 63.66,117.43 ZM 105.68 109.12 L 111.50 108.50 L 111.50 90.50 L 111.50 72.50 L 98.50 72.75 C91.35,72.89 79.54,73.28 72.25,73.61 L 59.00 74.20 L 59.00 91.94 C59.00,101.69 59.34,110.01 59.75,110.42 C60.53,111.21 95.48,110.22 105.68,109.12 ZM 81.00 69.00 C81.00,68.45 80.55,68.00 80.00,68.00 C79.45,68.00 79.00,68.45 79.00,69.00 C79.00,69.55 79.45,70.00 80.00,70.00 C80.55,70.00 81.00,69.55 81.00,69.00 ZM 155.36 106.50 C155.04,105.67 155.07,103.87 155.41,102.50 C155.97,100.25 156.54,100.00 161.02,100.00 L 166.00 100.00 L 166.00 104.00 L 166.00 108.00 L 160.97 108.00 C157.42,108.00 155.77,107.56 155.36,106.50 ZM 167.19 103.75 L 167.50 99.50 L 173.25 99.20 L 179.00 98.90 L 179.00 103.45 L 179.00 108.00 L 172.94 108.00 L 166.89 108.00 L 167.19 103.75 ZM 181.00 104.58 C181.00,103.25 180.72,101.43 180.37,100.53 C179.83,99.11 180.61,98.94 186.62,99.20 L 193.50 99.50 L 193.81 103.25 L 194.12 107.00 L 187.56 107.00 C181.29,107.00 181.00,106.89 181.00,104.58 ZM 195.19 102.75 L 195.50 98.50 L 201.26 98.20 L 207.02 97.90 L 206.85 102.45 L 206.68 107.00 L 200.78 107.00 L 194.89 107.00 L 195.19 102.75 ZM 209.00 102.74 L 209.00 98.25 L 213.75 98.50 C216.36,98.64 218.84,98.81 219.25,98.88 C219.91,98.98 220.40,105.96 219.75,106.02 C219.61,106.04 217.14,106.31 214.25,106.64 L 209.00 107.23 L 209.00 102.74 ZM 155.64 96.49 C155.32,95.66 155.48,93.86 156.00,92.49 C156.82,90.34 157.57,90.00 161.48,90.00 L 166.00 90.00 L 166.00 94.00 L 166.00 98.00 L 161.11 98.00 C157.67,98.00 156.04,97.55 155.64,96.49 ZM 167.19 93.75 L 167.50 89.50 L 173.25 89.20 L 179.00 88.90 L 179.00 93.45 L 179.00 98.00 L 172.94 98.00 L 166.89 98.00 L 167.19 93.75 ZM 180.00 93.57 L 180.00 89.00 L 184.25 88.99 C186.59,88.98 189.51,88.70 190.75,88.37 C192.81,87.82 193.00,88.10 193.00,91.82 C193.00,94.06 192.66,96.08 192.25,96.32 C191.84,96.55 188.91,97.06 185.75,97.45 L 180.00 98.14 L 180.00 93.57 ZM 194.82 92.95 C194.61,90.72 194.64,88.69 194.89,88.45 C195.13,88.20 197.96,88.00 201.17,88.00 L 207.00 88.00 L 207.00 92.50 L 207.00 97.00 L 201.11 97.00 L 195.21 97.00 L 194.82 92.95 ZM 208.00 92.62 L 208.00 88.00 L 211.75 87.99 C213.81,87.98 216.51,87.70 217.75,87.37 C219.85,86.81 220.00,87.08 220.00,91.38 C220.00,95.80 219.88,96.00 217.12,96.00 C215.54,96.00 212.84,96.28 211.12,96.62 L 208.00 97.25 L 208.00 92.62 ZM 56.50 46.24 C54.85,46.07 52.51,45.43 51.30,44.82 C48.73,43.53 45.96,38.23 46.09,34.85 C46.17,32.89 46.33,33.02 47.10,35.67 C48.15,39.31 53.23,44.00 56.13,44.00 C58.95,44.00 63.76,41.31 64.97,39.06 C67.63,34.09 65.23,27.95 59.62,25.34 L 56.50 23.89 L 59.89 24.45 C63.14,24.98 68.39,29.27 67.23,30.44 C66.92,30.75 67.19,31.00 67.83,31.00 C69.26,31.00 69.39,36.64 67.98,37.51 C67.42,37.86 67.24,38.59 67.58,39.13 C68.34,40.36 65.18,44.00 63.35,44.00 C62.61,44.00 62.00,44.40 62.00,44.89 C62.00,46.13 60.03,46.62 56.50,46.24 ZM 50.33 33.81 C49.01,30.85 51.30,28.14 54.59,28.77 C56.26,29.09 57.00,29.90 57.00,31.42 C57.00,35.93 52.06,37.70 50.33,33.81 Z" fill="rgb(237,240,242)"/>
</g>
</svg>